<svg width="264" height="115" viewBox="0 0 264 115" fill="none" xmlns="http://www.w3.org/2000/svg">
<g style="mix-blend-mode:luminosity">
<g style="mix-blend-mode:luminosity" filter="url(#filter0_d)">
<path d="M118.039 55.833L126.535 62.0586C123.703 67.2344 119.675 71.2627 114.45 74.1436C109.226 76.9756 103.562 78.3916 97.458 78.3916C87.7412 78.3916 79.7334 75.3154 73.4346 69.1631C67.1357 62.9619 63.9863 55.0029 63.9863 45.2861C63.9863 35.5205 67.1113 27.3662 73.3613 20.8232C79.6113 14.2803 87.6191 11.0088 97.3848 11.0088C102.805 11.0088 107.858 12.2783 112.546 14.8174C117.233 17.3076 120.773 20.8721 123.166 25.5107L114.963 30.3447C113.303 27.6104 111.13 25.4131 108.444 23.7529C105.759 22.0928 102.634 21.2627 99.0693 21.2627C95.5537 21.2627 92.3066 22.459 89.3281 24.8516C83.5664 29.4414 80.6855 36.1064 80.6855 44.8467C80.6855 53.4893 83.4199 60.0078 88.8887 64.4023C91.7695 66.6973 95.1631 67.8447 99.0693 67.8447C103.024 67.8447 106.638 66.7461 109.909 64.5488C113.229 62.3027 115.939 59.3975 118.039 55.833Z" fill="#666666"/>
</g>
<g filter="url(#filter1_d)">
<path d="M99.8 53.4C97.6133 53.4 95.7733 53.04 94.28 52.32C93.5067 51.9733 92.88 51.6 92.4 51.2L93.8 48.8H94.2C94.4933 49.0667 94.96 49.3733 95.6 49.72C96.8267 50.3067 98.0933 50.6 99.4 50.6C101 50.6 102.16 50.3467 102.88 49.84C103.627 49.3333 104 48.6533 104 47.8C104 46.92 103.613 46.2533 102.84 45.8C102.093 45.3467 100.92 44.8533 99.32 44.32C97.9067 43.84 96.7733 43.4 95.92 43C95.0667 42.6 94.3333 42.0267 93.72 41.28C93.1067 40.5333 92.8 39.5733 92.8 38.4C92.8 36.6133 93.4267 35.2 94.68 34.16C95.96 33.12 97.8667 32.6 100.4 32.6C102.293 32.6 104.013 32.9733 105.56 33.72C106.307 34.0667 106.92 34.4267 107.4 34.8L106 37.2H105.6C105.2 36.9067 104.747 36.6133 104.24 36.32C103.067 35.7067 101.92 35.4 100.8 35.4C99.4667 35.4 98.4667 35.6533 97.8 36.16C97.1333 36.64 96.8 37.2533 96.8 38C96.8 38.88 97.1733 39.5467 97.92 40C98.6933 40.4533 99.88 40.9467 101.48 41.48C102.893 41.96 104.027 42.4 104.88 42.8C105.733 43.2 106.467 43.7733 107.08 44.52C107.693 45.2667 108 46.2267 108 47.4C108 49.2933 107.333 50.7733 106 51.84C104.667 52.88 102.6 53.4 99.8 53.4ZM120.198 53.4C117.425 53.4 115.265 52.52 113.718 50.76C112.172 49 111.398 46.4133 111.398 43C111.398 39.5867 112.145 37 113.638 35.24C115.158 33.48 117.212 32.6 119.798 32.6C121.558 32.6 123.158 32.9733 124.598 33.72C125.292 34.04 125.892 34.4 126.398 34.8L124.998 37.2H124.598C124.252 36.9333 123.812 36.64 123.278 36.32C122.158 35.7067 121.132 35.4 120.198 35.4C118.705 35.4 117.532 36 116.678 37.2C115.825 38.4 115.398 40.3333 115.398 43C115.398 45.6933 115.838 47.64 116.718 48.84C117.625 50.0133 118.918 50.6 120.598 50.6C121.585 50.6 122.612 50.3067 123.678 49.72C124.238 49.4 124.678 49.0933 124.998 48.8H125.398L126.798 51.2C126.318 51.6 125.718 51.9733 124.998 52.32C123.612 53.04 122.012 53.4 120.198 53.4ZM130.602 26.2L131.802 25H134.602V34.6C135.028 34.1733 135.468 33.84 135.922 33.6C137.202 32.9333 138.495 32.6 139.802 32.6C141.802 32.6 143.428 33.24 144.682 34.52C145.962 35.7733 146.602 37.4 146.602 39.4V53H142.602V39.4C142.602 38.28 142.242 37.3733 141.522 36.68C140.828 35.96 139.922 35.6 138.802 35.6C137.815 35.6 136.815 36 135.802 36.8C135.375 37.1733 134.975 37.5733 134.602 38V53H130.602V26.2ZM159.998 53.4C157.305 53.4 155.198 52.52 153.678 50.76C152.158 49 151.398 46.4133 151.398 43C151.398 39.5867 152.158 37 153.678 35.24C155.198 33.48 157.305 32.6 159.998 32.6C162.665 32.6 164.758 33.48 166.278 35.24C167.825 37 168.598 39.5867 168.598 43C168.598 46.4133 167.825 49 166.278 50.76C164.758 52.52 162.665 53.4 159.998 53.4ZM159.998 50.6C161.385 50.6 162.492 50 163.318 48.8C164.172 47.5733 164.598 45.64 164.598 43C164.598 40.36 164.172 38.44 163.318 37.24C162.492 36.0133 161.385 35.4 159.998 35.4C158.612 35.4 157.492 36.0133 156.638 37.24C155.812 38.44 155.398 40.36 155.398 43C155.398 45.64 155.812 47.5733 156.638 48.8C157.492 50 158.612 50.6 159.998 50.6ZM181.209 53.4C178.516 53.4 176.409 52.52 174.889 50.76C173.369 49 172.609 46.4133 172.609 43C172.609 39.5867 173.369 37 174.889 35.24C176.409 33.48 178.516 32.6 181.209 32.6C183.876 32.6 185.969 33.48 187.489 35.24C189.036 37 189.809 39.5867 189.809 43C189.809 46.4133 189.036 49 187.489 50.76C185.969 52.52 183.876 53.4 181.209 53.4ZM181.209 50.6C182.596 50.6 183.703 50 184.529 48.8C185.383 47.5733 185.809 45.64 185.809 43C185.809 40.36 185.383 38.44 184.529 37.24C183.703 36.0133 182.596 35.4 181.209 35.4C179.823 35.4 178.703 36.0133 177.849 37.24C177.023 38.44 176.609 40.36 176.609 43C176.609 45.64 177.023 47.5733 177.849 48.8C178.703 50 179.823 50.6 181.209 50.6ZM194.82 53V26.2L196.02 25H198.82V53H194.82Z" fill="black"/>
</g>
<g filter="url(#filter2_d)">
<path d="M13.8984 98.9395C13.7402 100.293 13.2393 101.339 12.3955 102.077C11.5576 102.81 10.4414 103.176 9.04688 103.176C7.53516 103.176 6.32227 102.634 5.4082 101.55C4.5 100.466 4.0459 99.0156 4.0459 97.1992V95.9688C4.0459 94.7793 4.25684 93.7334 4.67871 92.8311C5.10645 91.9287 5.70996 91.2373 6.48926 90.7568C7.26855 90.2705 8.1709 90.0273 9.19629 90.0273C10.5557 90.0273 11.6455 90.4082 12.4658 91.1699C13.2861 91.9258 13.7637 92.9746 13.8984 94.3164H12.2021C12.0557 93.2969 11.7363 92.5586 11.2441 92.1016C10.7578 91.6445 10.0752 91.416 9.19629 91.416C8.11816 91.416 7.27148 91.8145 6.65625 92.6113C6.04688 93.4082 5.74219 94.542 5.74219 96.0127V97.252C5.74219 98.6406 6.03223 99.7451 6.6123 100.565C7.19238 101.386 8.00391 101.796 9.04688 101.796C9.98438 101.796 10.7021 101.585 11.2002 101.163C11.7041 100.735 12.0381 99.9941 12.2021 98.9395H13.8984ZM15.5244 98.1572C15.5244 97.2256 15.7061 96.3877 16.0693 95.6436C16.4385 94.8994 16.9482 94.3252 17.5986 93.9209C18.2549 93.5166 19.002 93.3145 19.8398 93.3145C21.1348 93.3145 22.1807 93.7627 22.9775 94.6592C23.7803 95.5557 24.1816 96.748 24.1816 98.2363V98.3506C24.1816 99.2764 24.0029 100.108 23.6455 100.847C23.2939 101.579 22.7871 102.15 22.125 102.561C21.4688 102.971 20.7129 103.176 19.8574 103.176C18.5684 103.176 17.5225 102.728 16.7197 101.831C15.9229 100.935 15.5244 99.748 15.5244 98.2715V98.1572ZM17.1592 98.3506C17.1592 99.4053 17.4023 100.252 17.8887 100.891C18.3809 101.529 19.0371 101.849 19.8574 101.849C20.6836 101.849 21.3398 101.526 21.8262 100.882C22.3125 100.231 22.5557 99.3232 22.5557 98.1572C22.5557 97.1143 22.3066 96.2705 21.8086 95.626C21.3164 94.9756 20.6602 94.6504 19.8398 94.6504C19.0371 94.6504 18.3896 94.9697 17.8975 95.6084C17.4053 96.2471 17.1592 97.1611 17.1592 98.3506ZM25.8252 98.166C25.8252 96.707 26.1709 95.5352 26.8623 94.6504C27.5537 93.7598 28.459 93.3145 29.5781 93.3145C30.6914 93.3145 31.5732 93.6953 32.2236 94.457V89.5H33.8496V103H32.3555L32.2764 101.98C31.626 102.777 30.7207 103.176 29.5605 103.176C28.459 103.176 27.5596 102.725 26.8623 101.822C26.1709 100.92 25.8252 99.7422 25.8252 98.2891V98.166ZM27.4512 98.3506C27.4512 99.4287 27.6738 100.272 28.1191 100.882C28.5645 101.491 29.1797 101.796 29.9648 101.796C30.9961 101.796 31.749 101.333 32.2236 100.407V96.0391C31.7373 95.1426 30.9902 94.6943 29.9824 94.6943C29.1855 94.6943 28.5645 95.002 28.1191 95.6172C27.6738 96.2324 27.4512 97.1436 27.4512 98.3506ZM38.1475 103H36.5215V93.4902H38.1475V103ZM36.3896 90.9678C36.3896 90.7041 36.4688 90.4814 36.627 90.2998C36.791 90.1182 37.0312 90.0273 37.3477 90.0273C37.6641 90.0273 37.9043 90.1182 38.0684 90.2998C38.2324 90.4814 38.3145 90.7041 38.3145 90.9678C38.3145 91.2314 38.2324 91.4512 38.0684 91.627C37.9043 91.8027 37.6641 91.8906 37.3477 91.8906C37.0312 91.8906 36.791 91.8027 36.627 91.627C36.4688 91.4512 36.3896 91.2314 36.3896 90.9678ZM42.2959 93.4902L42.3486 94.6855C43.0752 93.7715 44.0244 93.3145 45.1963 93.3145C47.2061 93.3145 48.2197 94.4482 48.2373 96.7158V103H46.6113V96.707C46.6055 96.0215 46.4473 95.5146 46.1367 95.1865C45.832 94.8584 45.3545 94.6943 44.7041 94.6943C44.1768 94.6943 43.7139 94.835 43.3154 95.1162C42.917 95.3975 42.6064 95.7666 42.3838 96.2236V103H40.7578V93.4902H42.2959ZM50.3027 98.166C50.3027 96.6836 50.6455 95.5059 51.3311 94.6328C52.0166 93.7539 52.9248 93.3145 54.0557 93.3145C55.2158 93.3145 56.1211 93.7246 56.7715 94.5449L56.8506 93.4902H58.3359V102.771C58.3359 104.002 57.9697 104.972 57.2373 105.681C56.5107 106.39 55.5322 106.744 54.3018 106.744C53.6162 106.744 52.9453 106.598 52.2891 106.305C51.6328 106.012 51.1318 105.61 50.7861 105.101L51.6299 104.125C52.3271 104.986 53.1797 105.417 54.1875 105.417C54.9785 105.417 55.5938 105.194 56.0332 104.749C56.4785 104.304 56.7012 103.677 56.7012 102.868V102.051C56.0508 102.801 55.1631 103.176 54.0381 103.176C52.9248 103.176 52.0225 102.728 51.3311 101.831C50.6455 100.935 50.3027 99.7129 50.3027 98.166ZM51.9375 98.3506C51.9375 99.4229 52.1572 100.267 52.5967 100.882C53.0361 101.491 53.6514 101.796 54.4424 101.796C55.4678 101.796 56.2207 101.33 56.7012 100.398V96.0566C56.2031 95.1484 55.4561 94.6943 54.46 94.6943C53.6689 94.6943 53.0508 95.002 52.6055 95.6172C52.1602 96.2324 51.9375 97.1436 51.9375 98.3506ZM71.1328 103C71.0391 102.812 70.9629 102.479 70.9043 101.998C70.1484 102.783 69.2461 103.176 68.1973 103.176C67.2598 103.176 66.4893 102.912 65.8857 102.385C65.2881 101.852 64.9893 101.178 64.9893 100.363C64.9893 99.373 65.3643 98.6055 66.1143 98.0605C66.8701 97.5098 67.9307 97.2344 69.2959 97.2344H70.8779V96.4873C70.8779 95.9189 70.708 95.4678 70.3682 95.1338C70.0283 94.7939 69.5273 94.624 68.8652 94.624C68.2852 94.624 67.7988 94.7705 67.4062 95.0635C67.0137 95.3564 66.8174 95.7109 66.8174 96.127H65.1826C65.1826 95.6523 65.3496 95.1953 65.6836 94.7559C66.0234 94.3105 66.4805 93.959 67.0547 93.7012C67.6348 93.4434 68.2705 93.3145 68.9619 93.3145C70.0576 93.3145 70.916 93.5898 71.5371 94.1406C72.1582 94.6855 72.4805 95.4385 72.5039 96.3994V100.776C72.5039 101.649 72.6152 102.344 72.8379 102.859V103H71.1328ZM68.4346 101.761C68.9443 101.761 69.4277 101.629 69.8848 101.365C70.3418 101.102 70.6729 100.759 70.8779 100.337V98.3857H69.6035C67.6113 98.3857 66.6152 98.9688 66.6152 100.135C66.6152 100.645 66.7852 101.043 67.125 101.33C67.4648 101.617 67.9014 101.761 68.4346 101.761ZM75.8525 103V94.7471H74.3496V93.4902H75.8525V92.5146C75.8525 91.4951 76.125 90.707 76.6699 90.1504C77.2148 89.5938 77.9854 89.3154 78.9814 89.3154C79.3564 89.3154 79.7285 89.3652 80.0977 89.4648L80.0098 90.7832C79.7344 90.7305 79.4414 90.7041 79.1309 90.7041C78.6035 90.7041 78.1963 90.8594 77.9092 91.1699C77.6221 91.4746 77.4785 91.9141 77.4785 92.4883V93.4902H79.5088V94.7471H77.4785V103H75.8525ZM85.9072 94.9492C85.6611 94.9082 85.3945 94.8877 85.1074 94.8877C84.041 94.8877 83.3174 95.3418 82.9365 96.25V103H81.3105V93.4902H82.8926L82.9189 94.5889C83.4521 93.7393 84.208 93.3145 85.1865 93.3145C85.5029 93.3145 85.7432 93.3555 85.9072 93.4375V94.9492ZM89.1768 103H87.5508V93.4902H89.1768V103ZM87.4189 90.9678C87.4189 90.7041 87.498 90.4814 87.6562 90.2998C87.8203 90.1182 88.0605 90.0273 88.377 90.0273C88.6934 90.0273 88.9336 90.1182 89.0977 90.2998C89.2617 90.4814 89.3438 90.7041 89.3438 90.9678C89.3438 91.2314 89.2617 91.4512 89.0977 91.627C88.9336 91.8027 88.6934 91.8906 88.377 91.8906C88.0605 91.8906 87.8203 91.8027 87.6562 91.627C87.498 91.4512 87.4189 91.2314 87.4189 90.9678ZM95.6016 101.849C96.1816 101.849 96.6885 101.673 97.1221 101.321C97.5557 100.97 97.7959 100.53 97.8428 100.003H99.3809C99.3516 100.548 99.1641 101.066 98.8184 101.559C98.4727 102.051 98.0098 102.443 97.4297 102.736C96.8555 103.029 96.2461 103.176 95.6016 103.176C94.3066 103.176 93.2754 102.745 92.5078 101.884C91.7461 101.017 91.3652 99.833 91.3652 98.333V98.0605C91.3652 97.1348 91.5352 96.3115 91.875 95.5908C92.2148 94.8701 92.7012 94.3105 93.334 93.9121C93.9727 93.5137 94.7256 93.3145 95.5928 93.3145C96.6592 93.3145 97.5439 93.6338 98.2471 94.2725C98.9561 94.9111 99.334 95.7402 99.3809 96.7598H97.8428C97.7959 96.1445 97.5615 95.6406 97.1396 95.248C96.7236 94.8496 96.208 94.6504 95.5928 94.6504C94.7666 94.6504 94.125 94.9492 93.668 95.5469C93.2168 96.1387 92.9912 96.9971 92.9912 98.1221V98.4297C92.9912 99.5254 93.2168 100.369 93.668 100.961C94.1191 101.553 94.7637 101.849 95.6016 101.849ZM107.08 103C106.986 102.812 106.91 102.479 106.852 101.998C106.096 102.783 105.193 103.176 104.145 103.176C103.207 103.176 102.437 102.912 101.833 102.385C101.235 101.852 100.937 101.178 100.937 100.363C100.937 99.373 101.312 98.6055 102.062 98.0605C102.817 97.5098 103.878 97.2344 105.243 97.2344H106.825V96.4873C106.825 95.9189 106.655 95.4678 106.315 95.1338C105.976 94.7939 105.475 94.624 104.812 94.624C104.232 94.624 103.746 94.7705 103.354 95.0635C102.961 95.3564 102.765 95.7109 102.765 96.127H101.13C101.13 95.6523 101.297 95.1953 101.631 94.7559C101.971 94.3105 102.428 93.959 103.002 93.7012C103.582 93.4434 104.218 93.3145 104.909 93.3145C106.005 93.3145 106.863 93.5898 107.484 94.1406C108.105 94.6855 108.428 95.4385 108.451 96.3994V100.776C108.451 101.649 108.562 102.344 108.785 102.859V103H107.08ZM104.382 101.761C104.892 101.761 105.375 101.629 105.832 101.365C106.289 101.102 106.62 100.759 106.825 100.337V98.3857H105.551C103.559 98.3857 102.562 98.9688 102.562 100.135C102.562 100.645 102.732 101.043 103.072 101.33C103.412 101.617 103.849 101.761 104.382 101.761ZM117.082 105.373H115.772V90.2031H117.082V105.373ZM123.894 98.1572C123.894 97.2256 124.075 96.3877 124.438 95.6436C124.808 94.8994 125.317 94.3252 125.968 93.9209C126.624 93.5166 127.371 93.3145 128.209 93.3145C129.504 93.3145 130.55 93.7627 131.347 94.6592C132.149 95.5557 132.551 96.748 132.551 98.2363V98.3506C132.551 99.2764 132.372 100.108 132.015 100.847C131.663 101.579 131.156 102.15 130.494 102.561C129.838 102.971 129.082 103.176 128.227 103.176C126.938 103.176 125.892 102.728 125.089 101.831C124.292 100.935 123.894 99.748 123.894 98.2715V98.1572ZM125.528 98.3506C125.528 99.4053 125.771 100.252 126.258 100.891C126.75 101.529 127.406 101.849 128.227 101.849C129.053 101.849 129.709 101.526 130.195 100.882C130.682 100.231 130.925 99.3232 130.925 98.1572C130.925 97.1143 130.676 96.2705 130.178 95.626C129.686 94.9756 129.029 94.6504 128.209 94.6504C127.406 94.6504 126.759 94.9697 126.267 95.6084C125.774 96.2471 125.528 97.1611 125.528 98.3506ZM136.128 93.4902L136.181 94.6855C136.907 93.7715 137.856 93.3145 139.028 93.3145C141.038 93.3145 142.052 94.4482 142.069 96.7158V103H140.443V96.707C140.438 96.0215 140.279 95.5146 139.969 95.1865C139.664 94.8584 139.187 94.6943 138.536 94.6943C138.009 94.6943 137.546 94.835 137.147 95.1162C136.749 95.3975 136.438 95.7666 136.216 96.2236V103H134.59V93.4902H136.128ZM148.468 103.176C147.179 103.176 146.13 102.754 145.321 101.91C144.513 101.061 144.108 99.9268 144.108 98.5088V98.21C144.108 97.2666 144.287 96.4258 144.645 95.6875C145.008 94.9434 145.512 94.3633 146.156 93.9473C146.807 93.5254 147.51 93.3145 148.266 93.3145C149.502 93.3145 150.463 93.7217 151.148 94.5361C151.834 95.3506 152.177 96.5166 152.177 98.0342V98.7109H145.734C145.758 99.6484 146.03 100.407 146.552 100.987C147.079 101.562 147.747 101.849 148.556 101.849C149.13 101.849 149.616 101.731 150.015 101.497C150.413 101.263 150.762 100.952 151.061 100.565L152.054 101.339C151.257 102.563 150.062 103.176 148.468 103.176ZM148.266 94.6504C147.609 94.6504 147.059 94.8906 146.613 95.3711C146.168 95.8457 145.893 96.5137 145.787 97.375H150.551V97.252C150.504 96.4258 150.281 95.7871 149.883 95.3359C149.484 94.8789 148.945 94.6504 148.266 94.6504ZM160.298 103H158.672V89.5H160.298V103ZM164.675 103H163.049V93.4902H164.675V103ZM162.917 90.9678C162.917 90.7041 162.996 90.4814 163.154 90.2998C163.318 90.1182 163.559 90.0273 163.875 90.0273C164.191 90.0273 164.432 90.1182 164.596 90.2998C164.76 90.4814 164.842 90.7041 164.842 90.9678C164.842 91.2314 164.76 91.4512 164.596 91.627C164.432 91.8027 164.191 91.8906 163.875 91.8906C163.559 91.8906 163.318 91.8027 163.154 91.627C162.996 91.4512 162.917 91.2314 162.917 90.9678ZM168.823 93.4902L168.876 94.6855C169.603 93.7715 170.552 93.3145 171.724 93.3145C173.733 93.3145 174.747 94.4482 174.765 96.7158V103H173.139V96.707C173.133 96.0215 172.975 95.5146 172.664 95.1865C172.359 94.8584 171.882 94.6943 171.231 94.6943C170.704 94.6943 170.241 94.835 169.843 95.1162C169.444 95.3975 169.134 95.7666 168.911 96.2236V103H167.285V93.4902H168.823ZM181.163 103.176C179.874 103.176 178.825 102.754 178.017 101.91C177.208 101.061 176.804 99.9268 176.804 98.5088V98.21C176.804 97.2666 176.982 96.4258 177.34 95.6875C177.703 94.9434 178.207 94.3633 178.852 93.9473C179.502 93.5254 180.205 93.3145 180.961 93.3145C182.197 93.3145 183.158 93.7217 183.844 94.5361C184.529 95.3506 184.872 96.5166 184.872 98.0342V98.7109H178.43C178.453 99.6484 178.726 100.407 179.247 100.987C179.774 101.562 180.442 101.849 181.251 101.849C181.825 101.849 182.312 101.731 182.71 101.497C183.108 101.263 183.457 100.952 183.756 100.565L184.749 101.339C183.952 102.563 182.757 103.176 181.163 103.176ZM180.961 94.6504C180.305 94.6504 179.754 94.8906 179.309 95.3711C178.863 95.8457 178.588 96.5137 178.482 97.375H183.246V97.252C183.199 96.4258 182.977 95.7871 182.578 95.3359C182.18 94.8789 181.641 94.6504 180.961 94.6504ZM197.098 103C197.004 102.812 196.928 102.479 196.869 101.998C196.113 102.783 195.211 103.176 194.162 103.176C193.225 103.176 192.454 102.912 191.851 102.385C191.253 101.852 190.954 101.178 190.954 100.363C190.954 99.373 191.329 98.6055 192.079 98.0605C192.835 97.5098 193.896 97.2344 195.261 97.2344H196.843V96.4873C196.843 95.9189 196.673 95.4678 196.333 95.1338C195.993 94.7939 195.492 94.624 194.83 94.624C194.25 94.624 193.764 94.7705 193.371 95.0635C192.979 95.3564 192.782 95.7109 192.782 96.127H191.147C191.147 95.6523 191.314 95.1953 191.648 94.7559C191.988 94.3105 192.445 93.959 193.02 93.7012C193.6 93.4434 194.235 93.3145 194.927 93.3145C196.022 93.3145 196.881 93.5898 197.502 94.1406C198.123 94.6855 198.445 95.4385 198.469 96.3994V100.776C198.469 101.649 198.58 102.344 198.803 102.859V103H197.098ZM194.399 101.761C194.909 101.761 195.393 101.629 195.85 101.365C196.307 101.102 196.638 100.759 196.843 100.337V98.3857H195.568C193.576 98.3857 192.58 98.9688 192.58 100.135C192.58 100.645 192.75 101.043 193.09 101.33C193.43 101.617 193.866 101.761 194.399 101.761ZM203.224 91.1875V93.4902H204.999V94.7471H203.224V100.645C203.224 101.025 203.303 101.312 203.461 101.506C203.619 101.693 203.889 101.787 204.27 101.787C204.457 101.787 204.715 101.752 205.043 101.682V103C204.615 103.117 204.199 103.176 203.795 103.176C203.068 103.176 202.521 102.956 202.151 102.517C201.782 102.077 201.598 101.453 201.598 100.645V94.7471H199.866V93.4902H201.598V91.1875H203.224ZM217.242 103C217.148 102.812 217.072 102.479 217.014 101.998C216.258 102.783 215.355 103.176 214.307 103.176C213.369 103.176 212.599 102.912 211.995 102.385C211.397 101.852 211.099 101.178 211.099 100.363C211.099 99.373 211.474 98.6055 212.224 98.0605C212.979 97.5098 214.04 97.2344 215.405 97.2344H216.987V96.4873C216.987 95.9189 216.817 95.4678 216.478 95.1338C216.138 94.7939 215.637 94.624 214.975 94.624C214.395 94.624 213.908 94.7705 213.516 95.0635C213.123 95.3564 212.927 95.7109 212.927 96.127H211.292C211.292 95.6523 211.459 95.1953 211.793 94.7559C212.133 94.3105 212.59 93.959 213.164 93.7012C213.744 93.4434 214.38 93.3145 215.071 93.3145C216.167 93.3145 217.025 93.5898 217.646 94.1406C218.268 94.6855 218.59 95.4385 218.613 96.3994V100.776C218.613 101.649 218.725 102.344 218.947 102.859V103H217.242ZM214.544 101.761C215.054 101.761 215.537 101.629 215.994 101.365C216.451 101.102 216.782 100.759 216.987 100.337V98.3857H215.713C213.721 98.3857 212.725 98.9688 212.725 100.135C212.725 100.645 212.895 101.043 213.234 101.33C213.574 101.617 214.011 101.761 214.544 101.761ZM227.833 91.1875V93.4902H229.608V94.7471H227.833V100.645C227.833 101.025 227.912 101.312 228.07 101.506C228.229 101.693 228.498 101.787 228.879 101.787C229.066 101.787 229.324 101.752 229.652 101.682V103C229.225 103.117 228.809 103.176 228.404 103.176C227.678 103.176 227.13 102.956 226.761 102.517C226.392 102.077 226.207 101.453 226.207 100.645V94.7471H224.476V93.4902H226.207V91.1875H227.833ZM233.282 103H231.656V93.4902H233.282V103ZM231.524 90.9678C231.524 90.7041 231.604 90.4814 231.762 90.2998C231.926 90.1182 232.166 90.0273 232.482 90.0273C232.799 90.0273 233.039 90.1182 233.203 90.2998C233.367 90.4814 233.449 90.7041 233.449 90.9678C233.449 91.2314 233.367 91.4512 233.203 91.627C233.039 91.8027 232.799 91.8906 232.482 91.8906C232.166 91.8906 231.926 91.8027 231.762 91.627C231.604 91.4512 231.524 91.2314 231.524 90.9678ZM237.422 93.4902L237.466 94.5449C238.163 93.7246 239.104 93.3145 240.287 93.3145C241.617 93.3145 242.522 93.8242 243.003 94.8438C243.319 94.3867 243.729 94.0176 244.233 93.7363C244.743 93.4551 245.344 93.3145 246.035 93.3145C248.121 93.3145 249.182 94.4189 249.217 96.6279V103H247.591V96.7246C247.591 96.0449 247.436 95.5381 247.125 95.2041C246.814 94.8643 246.293 94.6943 245.561 94.6943C244.957 94.6943 244.456 94.876 244.058 95.2393C243.659 95.5967 243.428 96.0801 243.363 96.6895V103H241.729V96.7686C241.729 95.3857 241.052 94.6943 239.698 94.6943C238.632 94.6943 237.902 95.1484 237.51 96.0566V103H235.884V93.4902H237.422ZM255.624 103.176C254.335 103.176 253.286 102.754 252.478 101.91C251.669 101.061 251.265 99.9268 251.265 98.5088V98.21C251.265 97.2666 251.443 96.4258 251.801 95.6875C252.164 94.9434 252.668 94.3633 253.312 93.9473C253.963 93.5254 254.666 93.3145 255.422 93.3145C256.658 93.3145 257.619 93.7217 258.305 94.5361C258.99 95.3506 259.333 96.5166 259.333 98.0342V98.7109H252.891C252.914 99.6484 253.187 100.407 253.708 100.987C254.235 101.562 254.903 101.849 255.712 101.849C256.286 101.849 256.772 101.731 257.171 101.497C257.569 101.263 257.918 100.952 258.217 100.565L259.21 101.339C258.413 102.563 257.218 103.176 255.624 103.176ZM255.422 94.6504C254.766 94.6504 254.215 94.8906 253.77 95.3711C253.324 95.8457 253.049 96.5137 252.943 97.375H257.707V97.252C257.66 96.4258 257.438 95.7871 257.039 95.3359C256.641 94.8789 256.102 94.6504 255.422 94.6504Z" fill="black"/>
</g>
</g>
<defs>
<filter id="filter0_d" x="59.9863" y="11.0088" width="70.5488" height="75.3828" filterUnits="userSpaceOnUse" color-interpolation-filters="sRGB">
<feFlood flood-opacity="0" result="BackgroundImageFix"/>
<feColorMatrix in="SourceAlpha" type="matrix" values="0 0 0 0 0 0 0 0 0 0 0 0 0 0 0 0 0 0 127 0"/>
<feOffset dy="4"/>
<feGaussianBlur stdDeviation="2"/>
<feColorMatrix type="matrix" values="0 0 0 0 0 0 0 0 0 0 0 0 0 0 0 0 0 0 0.25 0"/>
<feBlend mode="normal" in2="BackgroundImageFix" result="effect1_dropShadow"/>
<feBlend mode="normal" in="SourceGraphic" in2="effect1_dropShadow" result="shape"/>
</filter>
<filter id="filter1_d" x="88.4" y="25" width="114.42" height="36.4" filterUnits="userSpaceOnUse" color-interpolation-filters="sRGB">
<feFlood flood-opacity="0" result="BackgroundImageFix"/>
<feColorMatrix in="SourceAlpha" type="matrix" values="0 0 0 0 0 0 0 0 0 0 0 0 0 0 0 0 0 0 127 0"/>
<feOffset dy="4"/>
<feGaussianBlur stdDeviation="2"/>
<feColorMatrix type="matrix" values="0 0 0 0 0 0 0 0 0 0 0 0 0 0 0 0 0 0 0.25 0"/>
<feBlend mode="normal" in2="BackgroundImageFix" result="effect1_dropShadow"/>
<feBlend mode="normal" in="SourceGraphic" in2="effect1_dropShadow" result="shape"/>
</filter>
<filter id="filter2_d" x="0.0458984" y="89.3154" width="263.287" height="25.4287" filterUnits="userSpaceOnUse" color-interpolation-filters="sRGB">
<feFlood flood-opacity="0" result="BackgroundImageFix"/>
<feColorMatrix in="SourceAlpha" type="matrix" values="0 0 0 0 0 0 0 0 0 0 0 0 0 0 0 0 0 0 127 0"/>
<feOffset dy="4"/>
<feGaussianBlur stdDeviation="2"/>
<feColorMatrix type="matrix" values="0 0 0 0 0 0 0 0 0 0 0 0 0 0 0 0 0 0 0.25 0"/>
<feBlend mode="normal" in2="BackgroundImageFix" result="effect1_dropShadow"/>
<feBlend mode="normal" in="SourceGraphic" in2="effect1_dropShadow" result="shape"/>
</filter>
</defs>
</svg>
